<?xml version="1.0" encoding="UTF-8"?>
<svg xmlns="http://www.w3.org/2000/svg" viewBox="0 0 714.2 714">
  <defs>
    <style>
      .cls-1 {
        fill: #ff5152;
      }

      .cls-2 {
        fill: #fff;
      }

      .cls-3 {
        fill: none;
        stroke: #fff;
        stroke-linecap: round;
        stroke-miterlimit: 10;
        stroke-width: 40px;
      }
    </style>
  </defs>
  <g id="Layer_1" data-name="Layer 1">
    <path class="cls-1" d="M180.47,51.48L128.99,0,0,128.99l51.49,51.49c30.93-53.47,75.51-98.05,128.98-128.99Z"/>
    <path class="cls-1" d="M661.22,533.94c-31.12,53.35-75.85,97.79-129.44,128.54l51.52,51.52,128.99-128.99-51.07-51.07Z"/>
    <path class="cls-1" d="M662.55,181.64l51.65-51.65L585.21,1.01l-51.16,51.16c53.34,31.14,97.76,75.88,128.5,129.48Z"/>
    <path class="cls-1" d="M51.56,532.96L.2,584.32l128.99,128.99,51.4-51.4c-53.48-30.92-98.08-75.49-129.03-128.94Z"/>
    <path class="cls-2" d="M357.2,76.72c37.92,0,74.66,7.41,109.23,22.03,33.41,14.13,63.43,34.38,89.23,60.17,25.79,25.79,46.04,55.82,60.17,89.23,14.62,34.56,22.03,71.31,22.03,109.23s-7.41,74.66-22.03,109.23c-14.13,33.41-34.38,63.43-60.17,89.23-25.79,25.79-55.82,46.04-89.23,60.17-34.56,14.62-71.31,22.03-109.23,22.03s-74.66-7.41-109.23-22.03c-33.41-14.13-63.43-34.38-89.23-60.17-25.79-25.79-46.04-55.82-60.17-89.23-14.62-34.56-22.03-71.31-22.03-109.23s7.41-74.66,22.03-109.23c14.13-33.41,34.38-63.43,60.17-89.23,25.79-25.79,55.82-46.04,89.23-60.17,34.56-14.62,71.31-22.03,109.23-22.03m0-60C169.06,16.72,16.54,169.24,16.54,357.38s152.52,340.66,340.66,340.66,340.66-152.52,340.66-340.66S545.34,16.72,357.2,16.72h0Z"/>
  </g>
  <g id="Layer_2" data-name="Layer 2">
    <polyline class="cls-3" points="181.83 415.72 298.46 571.13 532.58 181.62"/>
  </g>
</svg>